<svg width="129" height="180" viewBox="0 0 129 180" fill="none" xmlns="http://www.w3.org/2000/svg">
<g clip-path="url(#clip0_36_2)">
<path d="M129 103.61H35.2414V123.704H129V103.61Z" fill="white"/>
<path d="M103.271 33.8945C104.47 40.538 104.527 47.3356 103.44 53.9981H129.01V33.8945H103.271Z" fill="white"/>
<path d="M98.9619 68.7572C95.4812 76.4277 90.4045 83.2763 84.067 88.8509H129.04V68.7572H98.9619Z" fill="white"/>
<path d="M44.6848 3.39211e-06C33.1926 0.0152534 22.1469 4.42901 13.8371 12.3265C5.5272 20.224 0.590328 30.9996 0.0496498 42.42H0V124H20.1975V81.6294C26.0194 85.4277 32.6528 87.8201 39.5688 88.6158C46.4848 89.4115 53.492 88.5885 60.0316 86.2124C66.5711 83.8363 72.4622 79.9729 77.2349 74.9302C82.0076 69.8875 85.5299 63.8051 87.5209 57.1681C89.5118 50.5311 89.9164 43.523 88.7024 36.7029C87.4883 29.8827 84.6892 23.4391 80.5282 17.886C76.3672 12.3328 70.9595 7.82378 64.7364 4.71842C58.5133 1.61305 51.6469 -0.00270213 44.6848 3.39211e-06ZM44.6848 68.8165C39.8417 68.8165 35.1073 67.3877 31.0804 64.7108C27.0535 62.034 23.9149 58.2292 22.0615 53.7778C20.2081 49.3263 19.7232 44.428 20.668 39.7024C21.6129 34.9768 23.9451 30.636 27.3697 27.229C30.7943 23.822 35.1575 21.5018 39.9076 20.5618C44.6576 19.6218 49.5812 20.1042 54.0556 21.9481C58.5301 23.792 62.3545 26.9144 65.0452 30.9206C67.7359 34.9268 69.172 39.6368 69.172 44.4551C69.1642 50.9137 66.5817 57.1056 61.9912 61.6725C57.4006 66.2395 51.1768 68.8086 44.6848 68.8165Z" fill="white"/>
</g>
<path d="M123.752 158.473C122.666 158.473 121.74 158.323 120.974 158.024C120.209 157.718 119.608 157.295 119.17 156.756C118.74 156.217 118.485 155.597 118.405 154.897V154.843H121.532L121.554 154.897C121.678 155.291 121.922 155.612 122.286 155.859C122.651 156.1 123.15 156.22 123.784 156.22C124.193 156.22 124.546 156.166 124.845 156.056C125.151 155.947 125.388 155.797 125.556 155.608C125.723 155.411 125.807 155.181 125.807 154.919V154.897C125.807 154.576 125.68 154.314 125.425 154.11C125.169 153.906 124.743 153.735 124.145 153.596L122.133 153.17C121.375 153.009 120.741 152.776 120.231 152.47C119.721 152.164 119.338 151.785 119.083 151.333C118.828 150.881 118.7 150.356 118.7 149.758V149.747C118.7 148.996 118.908 148.34 119.323 147.779C119.739 147.218 120.322 146.784 121.073 146.478C121.824 146.165 122.698 146.008 123.697 146.008C124.747 146.008 125.636 146.168 126.365 146.489C127.101 146.802 127.666 147.229 128.06 147.768C128.453 148.308 128.672 148.905 128.716 149.561V149.616H125.753L125.742 149.561C125.669 149.211 125.457 148.909 125.107 148.654C124.758 148.391 124.284 148.26 123.686 148.26C123.322 148.26 122.997 148.315 122.713 148.424C122.436 148.526 122.217 148.676 122.057 148.873C121.897 149.062 121.816 149.292 121.816 149.561V149.572C121.816 149.784 121.871 149.97 121.98 150.13C122.09 150.283 122.265 150.418 122.505 150.534C122.753 150.651 123.081 150.757 123.489 150.852L125.49 151.278C126.7 151.54 127.586 151.934 128.147 152.459C128.716 152.976 129 153.676 129 154.558V154.569C129 155.356 128.774 156.045 128.322 156.636C127.877 157.219 127.261 157.671 126.474 157.992C125.687 158.312 124.779 158.473 123.752 158.473Z" fill="white"/>
<path d="M115.026 158.309C113.598 158.309 112.562 158.05 111.921 157.532C111.287 157.015 110.97 156.162 110.97 154.974V148.665H109.177V146.259H110.97V143.384H114.195V146.259H116.601V148.665H114.195V154.329C114.195 154.868 114.319 155.258 114.567 155.499C114.815 155.739 115.201 155.859 115.726 155.859C115.916 155.859 116.072 155.856 116.196 155.848C116.327 155.841 116.462 155.83 116.601 155.816V158.177C116.411 158.214 116.178 158.243 115.901 158.265C115.631 158.294 115.34 158.309 115.026 158.309Z" fill="white"/>
<path d="M102.518 158.473C101.432 158.473 100.506 158.323 99.7405 158.024C98.9751 157.718 98.3737 157.295 97.9363 156.756C97.5063 156.217 97.2511 155.597 97.171 154.897V154.843H100.298L100.32 154.897C100.444 155.291 100.688 155.612 101.053 155.859C101.417 156.1 101.916 156.22 102.551 156.22C102.959 156.22 103.312 156.166 103.611 156.056C103.917 155.947 104.154 155.797 104.322 155.608C104.489 155.411 104.573 155.181 104.573 154.919V154.897C104.573 154.576 104.446 154.314 104.191 154.11C103.935 153.906 103.509 153.735 102.911 153.596L100.899 153.17C100.141 153.009 99.5072 152.776 98.9969 152.47C98.4867 152.164 98.104 151.785 97.8489 151.333C97.5937 150.881 97.4662 150.356 97.4662 149.758V149.747C97.4662 148.996 97.6739 148.34 98.0894 147.779C98.5049 147.218 99.0881 146.784 99.8389 146.478C100.59 146.165 101.464 146.008 102.463 146.008C103.513 146.008 104.402 146.168 105.131 146.489C105.867 146.802 106.432 147.229 106.826 147.768C107.219 148.308 107.438 148.905 107.482 149.561V149.616H104.519L104.508 149.561C104.435 149.211 104.223 148.909 103.874 148.654C103.524 148.391 103.05 148.26 102.452 148.26C102.088 148.26 101.763 148.315 101.479 148.424C101.202 148.526 100.983 148.676 100.823 148.873C100.663 149.062 100.582 149.292 100.582 149.561V149.572C100.582 149.784 100.637 149.97 100.746 150.13C100.856 150.283 101.031 150.418 101.271 150.534C101.519 150.651 101.847 150.757 102.255 150.852L104.256 151.278C105.466 151.54 106.352 151.934 106.913 152.459C107.482 152.976 107.766 153.676 107.766 154.558V154.569C107.766 155.356 107.54 156.045 107.088 156.636C106.643 157.219 106.028 157.671 105.24 157.992C104.453 158.312 103.546 158.473 102.518 158.473Z" fill="white"/>
<path d="M91.5727 158.221V146.259H94.7655V158.221H91.5727ZM93.1691 144.488C92.688 144.488 92.2725 144.317 91.9226 143.974C91.5727 143.631 91.3978 143.223 91.3978 142.749C91.3978 142.261 91.5727 141.849 91.9226 141.514C92.2725 141.171 92.688 141 93.1691 141C93.6648 141 94.0839 141.171 94.4265 141.514C94.7764 141.849 94.9513 142.261 94.9513 142.749C94.9513 143.223 94.7764 143.631 94.4265 143.974C94.0839 144.317 93.6648 144.488 93.1691 144.488Z" fill="white"/>
<path d="M85.3185 158.221V141.787H88.5112V158.221H85.3185Z" fill="white"/>
<path d="M73.6736 162.376C73.455 162.376 73.2363 162.369 73.0176 162.354C72.7989 162.347 72.5948 162.332 72.4053 162.31V159.927C72.5146 159.934 72.6458 159.941 72.7989 159.949C72.9593 159.963 73.1233 159.971 73.291 159.971C73.8377 159.971 74.2714 159.865 74.5921 159.653C74.9128 159.442 75.1315 159.114 75.2482 158.669L75.3684 158.221L71.1588 146.259H74.6686L77.4896 156.515L76.8336 155.389H77.6974L77.0632 156.515L79.8842 146.259H83.2519L79.1735 158.265C78.8309 159.293 78.4154 160.105 77.927 160.703C77.4386 161.301 76.8482 161.727 76.1557 161.982C75.4632 162.245 74.6358 162.376 73.6736 162.376Z" fill="white"/>
<path d="M62.7396 158.407C61.9742 158.407 61.2963 158.261 60.7059 157.97C60.1155 157.671 59.6526 157.252 59.3173 156.712C58.982 156.166 58.8143 155.531 58.8143 154.81V154.799C58.8143 154.077 58.9929 153.458 59.3501 152.94C59.7145 152.422 60.243 152.018 60.9355 151.726C61.628 151.435 62.4699 151.256 63.4613 151.191L67.9552 150.928V152.874L63.9314 153.137C63.2681 153.181 62.7688 153.33 62.4335 153.585C62.1055 153.833 61.9414 154.176 61.9414 154.613V154.635C61.9414 155.079 62.1127 155.433 62.4553 155.695C62.8052 155.95 63.2572 156.078 63.8112 156.078C64.2996 156.078 64.7333 155.983 65.1123 155.794C65.4987 155.597 65.8012 155.331 66.0198 154.996C66.2458 154.66 66.3588 154.285 66.3588 153.869V150.097C66.3588 149.572 66.1875 149.168 65.8449 148.883C65.5096 148.592 65.0176 148.446 64.3688 148.446C63.7857 148.446 63.3155 148.552 62.9583 148.763C62.6011 148.967 62.3642 149.252 62.2476 149.616L62.2257 149.671H59.2845L59.2954 149.561C59.3756 148.847 59.6344 148.224 60.0717 147.692C60.5164 147.16 61.1177 146.748 61.8758 146.456C62.6339 146.157 63.5159 146.008 64.5219 146.008C65.5788 146.008 66.4791 146.168 67.2226 146.489C67.9661 146.81 68.5347 147.273 68.9283 147.878C69.3219 148.483 69.5187 149.204 69.5187 150.042V158.221H66.3588V156.592H66.1948C65.9907 156.971 65.7173 157.299 65.3747 157.576C65.0321 157.846 64.6385 158.053 64.1939 158.199C63.7492 158.338 63.2645 158.407 62.7396 158.407Z" fill="white"/>
<path d="M53.1942 158.221V141.787H56.387V158.221H53.1942Z" fill="white"/>
<path d="M40.2702 153.246V150.666H44.272C45.2196 150.666 45.9559 150.425 46.4807 149.944C47.0128 149.456 47.2789 148.763 47.2789 147.867V147.845C47.2789 146.948 47.0128 146.259 46.4807 145.778C45.9559 145.297 45.2196 145.057 44.272 145.057H40.2702V142.443H45.0811C46.1891 142.443 47.1586 142.669 47.9896 143.121C48.8206 143.566 49.4657 144.193 49.9249 145.002C50.3914 145.811 50.6247 146.755 50.6247 147.834V147.856C50.6247 148.942 50.3914 149.889 49.9249 150.698C49.4657 151.508 48.8206 152.135 47.9896 152.579C47.1586 153.024 46.1891 153.246 45.0811 153.246H40.2702ZM38.6191 158.221V142.443H41.9212V158.221H38.6191Z" fill="white"/>
<path d="M21.2996 162.376C21.0809 162.376 20.8622 162.369 20.6435 162.354C20.4248 162.347 20.2207 162.332 20.0312 162.31V159.927C20.1406 159.934 20.2718 159.941 20.4248 159.949C20.5852 159.963 20.7492 159.971 20.9169 159.971C21.4636 159.971 21.8973 159.865 22.218 159.653C22.5388 159.442 22.7574 159.114 22.8741 158.669L22.9943 158.221L18.7847 146.259H22.2946L25.1155 156.515L24.4595 155.389H25.3233L24.6891 156.515L27.5101 146.259H30.8778L26.7994 158.265C26.4568 159.293 26.0413 160.105 25.5529 160.703C25.0645 161.301 24.4741 161.727 23.7816 161.982C23.0891 162.245 22.2618 162.376 21.2996 162.376Z" fill="white"/>
<path d="M0 158.221V142.443H3.78318L8.17867 153.946H8.34268L12.7272 142.443H16.5214V158.221H13.5801V147.506H11.9728L15.1546 142.881L9.29395 158.221H7.22741L1.36676 142.881L4.53763 147.506H2.94126V158.221H0Z" fill="white"/>
<path d="M119.128 179.262V172.013H120.298V173.116H120.406C120.567 172.725 120.814 172.423 121.146 172.208C121.482 171.992 121.888 171.885 122.363 171.885C122.69 171.885 122.984 171.939 123.244 172.046C123.504 172.154 123.728 172.304 123.916 172.497C124.104 172.685 124.255 172.905 124.367 173.156H124.474C124.604 172.9 124.779 172.678 124.999 172.49C125.219 172.297 125.472 172.149 125.759 172.046C126.05 171.939 126.362 171.885 126.693 171.885C127.187 171.885 127.604 171.977 127.944 172.161C128.289 172.344 128.552 172.613 128.731 172.968C128.91 173.317 129 173.745 129 174.252V179.262H127.83V174.521C127.83 174.162 127.774 173.866 127.662 173.633C127.554 173.396 127.388 173.219 127.164 173.102C126.94 172.981 126.658 172.921 126.317 172.921C125.981 172.921 125.687 172.997 125.436 173.149C125.185 173.302 124.99 173.506 124.851 173.761C124.712 174.012 124.642 174.292 124.642 174.602V179.262H123.472V174.339C123.472 174.052 123.41 173.804 123.284 173.593C123.163 173.378 122.988 173.212 122.76 173.095C122.535 172.979 122.271 172.921 121.966 172.921C121.652 172.921 121.368 173.003 121.112 173.169C120.861 173.335 120.661 173.559 120.513 173.842C120.37 174.12 120.298 174.429 120.298 174.77V179.262H119.128Z" fill="white"/>
<path d="M113.748 179.262V172.013H114.919V173.089H115.026C115.165 172.708 115.4 172.412 115.732 172.201C116.064 171.99 116.474 171.885 116.963 171.885C117.075 171.885 117.185 171.892 117.292 171.905C117.404 171.914 117.49 171.923 117.548 171.932V173.068C117.427 173.046 117.308 173.03 117.191 173.021C117.079 173.008 116.958 173.001 116.828 173.001C116.456 173.001 116.127 173.075 115.84 173.223C115.553 173.371 115.326 173.577 115.161 173.842C114.999 174.106 114.919 174.416 114.919 174.77V179.262H113.748Z" fill="white"/>
<path d="M108.591 179.39C107.905 179.39 107.311 179.239 106.808 178.939C106.311 178.634 105.925 178.202 105.652 177.641C105.383 177.081 105.248 176.415 105.248 175.644V175.631C105.248 174.855 105.383 174.187 105.652 173.627C105.925 173.066 106.311 172.636 106.808 172.335C107.311 172.035 107.905 171.885 108.591 171.885C109.281 171.885 109.875 172.035 110.373 172.335C110.87 172.636 111.254 173.066 111.523 173.627C111.796 174.187 111.933 174.855 111.933 175.631V175.644C111.933 176.415 111.796 177.081 111.523 177.641C111.254 178.202 110.87 178.634 110.373 178.939C109.875 179.239 109.281 179.39 108.591 179.39ZM108.591 178.354C109.048 178.354 109.436 178.246 109.754 178.031C110.072 177.816 110.314 177.507 110.48 177.103C110.651 176.7 110.736 176.213 110.736 175.644V175.631C110.736 175.057 110.651 174.568 110.48 174.165C110.314 173.761 110.072 173.454 109.754 173.243C109.436 173.028 109.048 172.921 108.591 172.921C108.133 172.921 107.745 173.028 107.427 173.243C107.109 173.454 106.865 173.761 106.694 174.165C106.528 174.568 106.445 175.057 106.445 175.631V175.644C106.445 176.213 106.528 176.7 106.694 177.103C106.865 177.507 107.109 177.816 107.427 178.031C107.745 178.246 108.133 178.354 108.591 178.354Z" fill="white"/>
<path d="M101.402 179.262V172.981H100.198V172.013H101.402V171.206C101.402 170.722 101.48 170.323 101.637 170.009C101.799 169.69 102.036 169.455 102.35 169.303C102.664 169.146 103.049 169.067 103.507 169.067C103.65 169.067 103.785 169.074 103.91 169.087C104.04 169.096 104.166 169.112 104.287 169.134V170.069C104.215 170.056 104.132 170.047 104.038 170.042C103.944 170.038 103.845 170.036 103.742 170.036C103.325 170.036 103.025 170.136 102.841 170.338C102.662 170.54 102.572 170.84 102.572 171.239V172.013H104.219V172.981H102.572V179.262H101.402Z" fill="white"/>
<path d="M98.49 179.316C97.7458 179.316 97.2056 179.166 96.8693 178.865C96.5376 178.565 96.3717 178.069 96.3717 177.379V172.981H95.2285V172.013H96.3717V170.136H97.5822V172.013H99.1692V172.981H97.5822V177.083C97.5822 177.509 97.6629 177.816 97.8243 178.004C97.9856 178.188 98.2546 178.28 98.6312 178.28C98.7343 178.28 98.8217 178.278 98.8935 178.273C98.9697 178.269 99.0616 178.262 99.1692 178.253V179.248C99.0571 179.266 98.945 179.282 98.833 179.296C98.7209 179.309 98.6066 179.316 98.49 179.316Z" fill="white"/>
<path d="M90.3061 179.39C89.8488 179.39 89.4363 179.302 89.0687 179.127C88.7056 178.953 88.4164 178.704 88.2012 178.381C87.9905 178.058 87.8852 177.677 87.8852 177.238V177.224C87.8852 176.794 87.9883 176.426 88.1945 176.121C88.4007 175.812 88.7011 175.57 89.0956 175.395C89.4901 175.22 89.9676 175.117 90.528 175.086L93.191 174.924V175.859L90.6692 176.021C90.1178 176.052 89.7143 176.166 89.4587 176.364C89.2077 176.561 89.0822 176.839 89.0822 177.197V177.211C89.0822 177.578 89.2211 177.865 89.4991 178.072C89.777 178.273 90.1267 178.374 90.5481 178.374C90.9471 178.374 91.3013 178.296 91.6106 178.139C91.92 177.977 92.1621 177.76 92.3369 177.487C92.5162 177.213 92.6059 176.904 92.6059 176.559V174.299C92.6059 173.851 92.4692 173.51 92.1957 173.277C91.9267 173.039 91.521 172.921 90.9785 172.921C90.5437 172.921 90.1873 172.999 89.9093 173.156C89.6313 173.308 89.4453 173.526 89.3511 173.808L89.3444 173.828H88.1743L88.181 173.788C88.2438 173.407 88.4007 173.075 88.6518 172.793C88.9073 172.506 89.2368 172.284 89.6403 172.127C90.0438 171.966 90.5033 171.885 91.0189 171.885C91.6106 171.885 92.1105 171.981 92.5185 172.174C92.9309 172.367 93.2425 172.645 93.4532 173.008C93.6684 173.367 93.776 173.797 93.776 174.299V179.262H92.6059V178.193H92.4983C92.3459 178.448 92.1598 178.666 91.9402 178.845C91.725 179.024 91.4806 179.161 91.2072 179.255C90.9337 179.345 90.6333 179.39 90.3061 179.39Z" fill="white"/>
<path d="M84.8994 179.262V169.134H86.0695V179.262H84.8994Z" fill="white"/>
<path d="M76.8297 175.799V174.723H79.5734C80.2683 174.723 80.8063 174.543 81.1873 174.185C81.5684 173.822 81.7589 173.322 81.7589 172.685V172.672C81.7589 172.031 81.5684 171.531 81.1873 171.172C80.8063 170.813 80.2683 170.634 79.5734 170.634H76.8297V169.558H79.8828C80.4925 169.558 81.0304 169.688 81.4967 169.948C81.9629 170.208 82.3283 170.571 82.5928 171.038C82.8618 171.504 82.9963 172.044 82.9963 172.658V172.672C82.9963 173.286 82.8618 173.828 82.5928 174.299C82.3283 174.77 81.9629 175.137 81.4967 175.402C81.0304 175.666 80.4925 175.799 79.8828 175.799H76.8297ZM76.2245 179.262V169.558H77.435V179.262H76.2245Z" fill="white"/>
<path d="M67.4622 179.39C66.7853 179.39 66.198 179.235 65.7004 178.926C65.2027 178.616 64.8172 178.179 64.5437 177.614C64.2703 177.049 64.1335 176.384 64.1335 175.617V175.604C64.1335 174.85 64.268 174.196 64.537 173.64C64.8105 173.084 65.196 172.654 65.6936 172.349C66.1913 172.04 66.7786 171.885 67.4555 171.885C68.0428 171.885 68.5494 171.988 68.9753 172.194C69.4012 172.4 69.7419 172.678 69.9975 173.028C70.253 173.373 70.4166 173.761 70.4884 174.191L70.4951 174.232H69.3317L69.325 174.212C69.2353 173.853 69.0313 173.548 68.713 173.297C68.3947 173.046 67.9756 172.921 67.4555 172.921C67.0207 172.921 66.6441 173.03 66.3258 173.25C66.0075 173.47 65.7609 173.781 65.5861 174.185C65.4157 174.584 65.3305 175.057 65.3305 175.604V175.617C65.3305 176.173 65.4179 176.657 65.5928 177.07C65.7676 177.478 66.0142 177.794 66.3325 178.018C66.6508 178.242 67.0251 178.354 67.4555 178.354C67.9442 178.354 68.3432 178.249 68.6525 178.038C68.9619 177.827 69.1838 177.52 69.3183 177.117L69.3317 177.076L70.4884 177.07L70.4749 177.144C70.3763 177.578 70.2014 177.966 69.9504 178.307C69.6993 178.643 69.3676 178.908 68.9551 179.101C68.5427 179.293 68.0451 179.39 67.4622 179.39Z" fill="white"/>
<path d="M61.1208 179.262V172.013H62.2909V179.262H61.1208ZM61.7126 170.614C61.4929 170.614 61.3024 170.535 61.141 170.379C60.9841 170.217 60.9056 170.027 60.9056 169.807C60.9056 169.583 60.9841 169.392 61.141 169.235C61.3024 169.078 61.4929 169 61.7126 169C61.9368 169 62.1273 169.078 62.2842 169.235C62.4411 169.392 62.5196 169.583 62.5196 169.807C62.5196 170.027 62.4411 170.217 62.2842 170.379C62.1273 170.535 61.9368 170.614 61.7126 170.614Z" fill="white"/>
<path d="M56.3732 179.39C55.8352 179.39 55.36 179.309 54.9476 179.148C54.5351 178.982 54.2034 178.751 53.9523 178.455C53.7057 178.159 53.56 177.812 53.5152 177.413H54.7122C54.8108 177.713 55.0036 177.955 55.2905 178.139C55.5774 178.323 55.9518 178.415 56.4135 178.415C56.7408 178.415 57.0277 178.368 57.2743 178.273C57.5254 178.175 57.7226 178.042 57.8661 177.877C58.0095 177.706 58.0813 177.511 58.0813 177.292V177.278C58.0813 177.032 57.9826 176.823 57.7854 176.653C57.5881 176.478 57.2653 176.337 56.817 176.229L55.694 175.96C55.2412 175.852 54.8691 175.714 54.5777 175.543C54.2863 175.368 54.0711 175.155 53.9321 174.904C53.7932 174.649 53.7237 174.348 53.7237 174.003V173.996C53.7237 173.593 53.8402 173.232 54.0733 172.914C54.311 172.595 54.6337 172.344 55.0417 172.161C55.4497 171.977 55.9092 171.885 56.4203 171.885C56.9269 171.885 57.3752 171.966 57.7652 172.127C58.1597 172.284 58.4758 172.508 58.7134 172.799C58.9555 173.091 59.1034 173.434 59.1572 173.828H58.0073C57.9311 173.541 57.7562 173.308 57.4828 173.129C57.2093 172.95 56.8529 172.86 56.4135 172.86C56.1266 172.86 55.8711 172.907 55.6469 173.001C55.4228 173.091 55.2457 173.216 55.1157 173.378C54.9857 173.539 54.9207 173.727 54.9207 173.943V173.956C54.9207 174.118 54.9633 174.261 55.0484 174.386C55.1336 174.512 55.2659 174.622 55.4452 174.716C55.6245 174.81 55.8554 174.893 56.1378 174.965L57.2541 175.234C57.9356 175.4 58.4422 175.637 58.7739 175.947C59.1102 176.256 59.2783 176.671 59.2783 177.191V177.204C59.2783 177.635 59.1505 178.016 58.895 178.347C58.6394 178.675 58.292 178.93 57.8526 179.114C57.4178 179.298 56.9246 179.39 56.3732 179.39Z" fill="white"/>
<path d="M48.2699 179.39C47.723 179.39 47.2635 179.287 46.8914 179.08C46.5193 178.87 46.2391 178.565 46.0508 178.166C45.867 177.762 45.7751 177.276 45.7751 176.707V172.013H46.9452V176.424C46.9452 177.074 47.0707 177.558 47.3217 177.877C47.5773 178.195 47.9942 178.354 48.5725 178.354C48.8908 178.354 49.171 178.307 49.4131 178.213C49.6597 178.119 49.8659 177.984 50.0318 177.809C50.1977 177.63 50.321 177.415 50.4017 177.164C50.4868 176.908 50.5294 176.621 50.5294 176.303V172.013H51.6995V179.262H50.5294V178.179H50.4218C50.3053 178.435 50.1461 178.654 49.9444 178.838C49.7426 179.018 49.5005 179.154 49.2181 179.248C48.9401 179.343 48.6241 179.39 48.2699 179.39Z" fill="white"/>
<path d="M33.953 179.262V169.558H35.3585L38.6805 177.655H38.7881L42.1101 169.558H43.5156V179.262H42.3858V171.851H41.794L43.1524 169.827L39.2454 179.262H38.2232L34.3229 169.827L35.6746 171.851H35.0828V179.262H33.953Z" fill="white"/>
<path d="M24.6864 179.262V172.013H25.8565V173.089H25.9641C26.103 172.708 26.3384 172.412 26.6702 172.201C27.0019 171.99 27.4121 171.885 27.9008 171.885C28.0129 171.885 28.1227 171.892 28.2303 171.905C28.3424 171.914 28.4275 171.923 28.4858 171.932V173.068C28.3648 173.046 28.246 173.03 28.1294 173.021C28.0173 173.008 27.8963 173.001 27.7663 173.001C27.3942 173.001 27.0647 173.075 26.7778 173.223C26.4908 173.371 26.2644 173.577 26.0986 173.842C25.9372 174.106 25.8565 174.416 25.8565 174.77V179.262H24.6864Z" fill="white"/>
<path d="M19.0713 179.39C18.5243 179.39 18.0648 179.287 17.6927 179.08C17.3206 178.87 17.0404 178.565 16.8521 178.166C16.6683 177.762 16.5764 177.276 16.5764 176.707V172.013H17.7465V176.424C17.7465 177.074 17.872 177.558 18.1231 177.877C18.3786 178.195 18.7956 178.354 19.3739 178.354C19.6922 178.354 19.9724 178.307 20.2145 178.213C20.4611 178.119 20.6673 177.984 20.8332 177.809C20.999 177.63 21.1223 177.415 21.203 177.164C21.2882 176.908 21.3308 176.621 21.3308 176.303V172.013H22.5009V179.262H21.3308V178.179H21.2232C21.1066 178.435 20.9475 178.654 20.7457 178.838C20.544 179.018 20.3019 179.154 20.0195 179.248C19.7415 179.343 19.4254 179.39 19.0713 179.39Z" fill="white"/>
<path d="M11.4858 179.39C10.7999 179.39 10.2059 179.239 9.70375 178.939C9.20612 178.634 8.82057 178.202 8.5471 177.641C8.27811 177.081 8.14362 176.415 8.14362 175.644V175.631C8.14362 174.855 8.27811 174.187 8.5471 173.627C8.82057 173.066 9.20612 172.636 9.70375 172.335C10.2059 172.035 10.7999 171.885 11.4858 171.885C12.1762 171.885 12.7702 172.035 13.2678 172.335C13.7655 172.636 14.1488 173.066 14.4178 173.627C14.6912 174.187 14.828 174.855 14.828 175.631V175.644C14.828 176.415 14.6912 177.081 14.4178 177.641C14.1488 178.202 13.7655 178.634 13.2678 178.939C12.7702 179.239 12.1762 179.39 11.4858 179.39ZM11.4858 178.354C11.9431 178.354 12.3309 178.246 12.6492 178.031C12.9675 177.816 13.2096 177.507 13.3754 177.103C13.5458 176.7 13.631 176.213 13.631 175.644V175.631C13.631 175.057 13.5458 174.568 13.3754 174.165C13.2096 173.761 12.9675 173.454 12.6492 173.243C12.3309 173.028 11.9431 172.921 11.4858 172.921C11.0285 172.921 10.6407 173.028 10.3224 173.243C10.0041 173.454 9.75979 173.761 9.58943 174.165C9.42355 174.568 9.34061 175.057 9.34061 175.631V175.644C9.34061 176.213 9.42355 176.7 9.58943 177.103C9.75979 177.507 10.0041 177.816 10.3224 178.031C10.6407 178.246 11.0285 178.354 11.4858 178.354Z" fill="white"/>
<path d="M3.44305 179.262V175.086L0 169.558H1.37856L3.99447 173.869H4.10207L6.71798 169.558H8.09654L4.65349 175.086V179.262H3.44305Z" fill="white"/>
<defs>
<clipPath id="clip0_36_2">
<rect width="129" height="124" fill="white"/>
</clipPath>
</defs>
</svg>
