<svg width="63" height="60" viewBox="0 0 63 60" fill="none" xmlns="http://www.w3.org/2000/svg">
<path d="M31.2616 3.73672C31.5146 3.73412 31.7627 3.80757 31.9741 3.9477C32.1855 4.08782 32.3506 4.28826 32.4484 4.5234L39.3896 18.6836L40.2095 20.3514L42.0365 20.6189L57.5587 22.8924C57.8037 22.9268 58.0342 23.03 58.2239 23.1901C58.4135 23.3502 58.5547 23.5608 58.6312 23.7979C58.7078 24.0349 58.7166 24.2889 58.6567 24.5308C58.5968 24.7727 58.4707 24.9928 58.2926 25.1659L47.057 36.1872L45.7375 37.4931L46.0498 39.3261L48.6967 54.9023C48.7348 55.0886 48.73 55.2812 48.6826 55.4654C48.6353 55.6495 48.5466 55.8202 48.4234 55.9643C48.298 56.1184 48.1409 56.2432 47.963 56.3301C47.785 56.4171 47.5905 56.464 47.3928 56.4678C47.1769 56.4641 46.9651 56.4074 46.7759 56.3026L32.8934 48.9314L31.2616 48.0582L29.6297 48.9314L15.7394 56.279C15.551 56.3856 15.3388 56.4425 15.1226 56.4442C14.9262 56.4393 14.7332 56.3918 14.5567 56.3049C14.3801 56.218 14.2243 56.0938 14.0998 55.9407C13.975 55.7975 13.8854 55.6269 13.8379 55.4424C13.7904 55.258 13.7865 55.0649 13.8265 54.8787L16.4734 39.3339L16.7857 37.501L15.4661 36.1872L4.23056 25.1737C4.04964 25.0024 3.9217 24.7821 3.86213 24.5392C3.80257 24.2964 3.81391 24.0414 3.8948 23.8049C3.96616 23.5655 4.10544 23.3523 4.29549 23.1915C4.48554 23.0308 4.71809 22.9295 4.96451 22.9002L20.4866 20.6267L22.3137 20.3592L23.1335 18.6915L30.0748 4.53127C30.1726 4.29612 30.3377 4.09569 30.5491 3.95556C30.7605 3.81544 31.0086 3.74199 31.2616 3.74459M31.2616 0.204533C30.3583 0.196865 29.4712 0.446925 28.703 0.925806C27.9348 1.40469 27.3168 2.09284 26.9204 2.91071L19.9791 17.0709L4.45697 19.3444C3.56428 19.475 2.72567 19.8546 2.03599 20.4404C1.34631 21.0262 0.833107 21.7948 0.554443 22.6592C0.275779 23.5236 0.242769 24.4493 0.459155 25.3316C0.675541 26.2139 1.13268 27.0176 1.77886 27.6518L13.0145 38.6653L10.3598 54.2808C10.2405 54.9803 10.2741 55.6976 10.4584 56.3826C10.6426 57.0677 10.973 57.7039 11.4266 58.247C11.8801 58.7901 12.4458 59.2269 13.0841 59.5269C13.7225 59.827 14.4182 59.9831 15.1226 59.9843C15.909 59.9808 16.683 59.7865 17.3791 59.4179L31.2616 52.0624L45.1441 59.4179C45.8364 59.7891 46.6085 59.9836 47.3928 59.9843C48.0974 59.9829 48.7933 59.8267 49.4319 59.5267C50.0706 59.2267 50.6367 58.7901 51.0908 58.2472C51.5449 57.7043 51.8761 57.0682 52.0613 56.3832C52.2466 55.6982 52.2814 54.9808 52.1634 54.2808L49.5087 38.7046L60.7443 27.6911C61.3905 27.0569 61.8476 26.2533 62.064 25.3709C62.2804 24.4886 62.2474 23.5629 61.9687 22.6985C61.6901 21.8341 61.1769 21.0655 60.4872 20.4797C59.7975 19.8939 58.9589 19.5143 58.0662 19.3838L42.544 17.1103L35.595 2.95004C35.2074 2.12338 34.5938 1.42525 33.8262 0.937559C33.0587 0.44987 32.169 0.192853 31.2616 0.196667V0.204533Z" fill="black"/>
</svg>
