<svg width="60" height="60" viewBox="0 0 60 60" fill="none" xmlns="http://www.w3.org/2000/svg">
<path d="M6.35847 35.613C5.65576 35.55 5.01551 35.55 4.39868 35.432C3.46811 35.2454 2.60178 34.8179 1.88492 34.1917C1.16807 33.5654 0.62538 32.7618 0.310251 31.8601C-0.00487813 30.9584 -0.0815926 29.9896 0.0876545 29.0489C0.256902 28.1083 0.666279 27.2282 1.27551 26.4953C1.41315 26.3306 1.55909 26.173 1.71276 26.0233C9.69245 17.9835 17.68 9.94624 25.6753 1.91163C26.1634 1.43392 26.7184 1.03104 27.3227 0.715876C28.9312 -0.157338 31.9138 -1.83284e-06 33.3973 1.57336C34.2484 2.5095 35.1307 3.36698 36.0208 4.24806C43.1832 11.4645 50.3405 18.6836 57.4925 25.9053C58.0577 26.4347 58.514 27.0709 58.8355 27.7776C60.3424 31.5694 58.0547 35.3769 54.0258 35.55C53.7057 35.55 53.3778 35.55 52.9952 35.55V36.3367C52.9952 42.048 52.9952 47.754 52.9952 53.4548C53.018 54.9228 52.5383 56.3539 51.6367 57.5073C50.7351 58.6607 49.4667 59.4659 48.045 59.7876C47.4772 59.9047 46.899 59.9627 46.3194 59.9607C43.3836 59.9607 40.4479 59.9607 37.5121 59.9607C36.0364 59.9607 35.3805 59.3077 35.3805 57.8366V44.4631C35.3805 42.3548 34.2093 41.1826 32.109 41.1826H27.1197C26.7018 41.1522 26.2823 41.2127 25.8897 41.3601C25.4971 41.5075 25.1405 41.7382 24.8443 42.0367C24.548 42.3352 24.3189 42.6945 24.1727 43.0901C24.0264 43.4856 23.9663 43.9083 23.9966 44.3294V57.7894C23.9966 59.3156 23.3563 59.9685 21.8572 59.9685C18.9605 59.9685 16.0559 59.9056 13.1592 59.9685C12.2565 59.9994 11.3572 59.8427 10.5172 59.5082C9.67726 59.1738 8.91459 58.6688 8.27668 58.0246C7.63877 57.3804 7.13927 56.6108 6.80926 55.7637C6.47926 54.9167 6.32581 54.0102 6.35847 53.1008C6.45997 47.5075 6.35847 41.9221 6.35847 36.3288V35.613ZM38.8628 56.4599H46.1945C48.3807 56.4599 49.5129 55.3114 49.5129 53.1166C49.5129 46.7707 49.5129 40.4222 49.5129 34.0711C49.4783 33.7966 49.5067 33.5178 49.5958 33.2561C49.685 32.9944 49.8325 32.7568 50.027 32.5615C50.2216 32.3662 50.458 32.2185 50.7181 32.1297C50.9782 32.0409 51.255 32.0134 51.5273 32.0493C52.3081 32.0493 53.0889 32.0493 53.9087 32.0493C54.3637 32.0552 54.8065 31.9014 55.1612 31.6144C55.5159 31.3273 55.7605 30.9248 55.8529 30.4759C55.9079 30.0594 55.8514 29.6356 55.6895 29.2484C55.5275 28.8611 55.2659 28.5245 54.9316 28.2732L31.4297 4.57847C30.1726 3.30405 29.1888 3.30405 27.9161 4.57847L6.96749 25.6929C6.01492 26.6605 5.04674 27.6203 4.10198 28.5879C3.80968 28.867 3.60825 29.2289 3.52429 29.6257C3.44033 30.0226 3.47779 30.4358 3.63173 30.8107C3.78566 31.1857 4.04883 31.5048 4.38649 31.7259C4.72415 31.947 5.12043 32.0598 5.52302 32.0493H7.6702C9.23179 32.0493 9.84081 32.6944 9.84081 34.252C9.84081 40.6084 9.84081 46.9595 9.84081 53.3054C9.80926 53.7267 9.86841 54.15 10.0142 54.5462C10.16 54.9424 10.389 55.3022 10.6856 55.601C10.9821 55.8997 11.3392 56.1305 11.7325 56.2774C12.1257 56.4243 12.5458 56.4839 12.964 56.4521H19.8584C20.0458 56.4521 20.2331 56.4521 20.4596 56.4521V55.7126C20.4596 51.7792 20.4596 47.8065 20.4596 43.8573C20.4835 42.3144 21.0763 40.8356 22.1226 39.7087C23.1689 38.5818 24.5939 37.8874 26.1203 37.7606C28.4627 37.6033 30.8675 37.7606 33.249 37.7606C33.4413 37.7701 33.6323 37.7991 33.8189 37.8471C35.2606 38.1522 36.5518 38.9535 37.4708 40.1134C38.3898 41.2733 38.8792 42.7195 38.855 44.2035C38.855 48.0425 38.855 51.8736 38.855 55.7126L38.8628 56.4599Z" fill="black"/>
</svg>
