<svg width="67" height="60" viewBox="0 0 67 60" fill="none" xmlns="http://www.w3.org/2000/svg">
<path d="M30.1219 35.5579H2.63798C2.17205 35.5579 1.7252 35.3714 1.39573 35.0395C1.06627 34.7075 0.881195 34.2573 0.881195 33.7879C0.881195 33.3184 1.06627 32.8682 1.39573 32.5363C1.7252 32.2043 2.17205 32.0178 2.63798 32.0178H30.1219C30.5878 32.0178 31.0346 32.2043 31.3641 32.5363C31.6936 32.8682 31.8786 33.3184 31.8786 33.7879C31.8786 34.2573 31.6936 34.7075 31.3641 35.0395C31.0346 35.3714 30.5878 35.5579 30.1219 35.5579Z" fill="black"/>
<path d="M30.1219 24.8827H2.63798C2.17205 24.8827 1.7252 24.6962 1.39573 24.3642C1.06627 24.0323 0.881195 23.5821 0.881195 23.1126C0.881195 22.6432 1.06627 22.193 1.39573 21.861C1.7252 21.5291 2.17205 21.3426 2.63798 21.3426H30.1219C30.5878 21.3426 31.0346 21.5291 31.3641 21.861C31.6936 22.193 31.8786 22.6432 31.8786 23.1126C31.8786 23.5821 31.6936 24.0323 31.3641 24.3642C31.0346 24.6962 30.5878 24.8827 30.1219 24.8827Z" fill="black"/>
<path d="M37.149 14.2153H2.63798C2.17205 14.2153 1.7252 14.0288 1.39573 13.6969C1.06627 13.3649 0.881195 12.9147 0.881195 12.4453C0.881195 11.9758 1.06627 11.5256 1.39573 11.1937C1.7252 10.8617 2.17205 10.6752 2.63798 10.6752H37.149C37.6149 10.6752 38.0618 10.8617 38.3912 11.1937C38.7207 11.5256 38.9058 11.9758 38.9058 12.4453C38.9058 12.9147 38.7207 13.3649 38.3912 13.6969C38.0618 14.0288 37.6149 14.2153 37.149 14.2153Z" fill="black"/>
<path d="M64.4767 3.54006H2.63798C2.17205 3.54006 1.7252 3.35357 1.39573 3.02163C1.06627 2.68968 0.881195 2.23947 0.881195 1.77003C0.881195 1.30059 1.06627 0.850374 1.39573 0.518429C1.7252 0.186485 2.17205 0 2.63798 0L64.4767 0C64.9426 0 65.3895 0.186485 65.7189 0.518429C66.0484 0.850374 66.2335 1.30059 66.2335 1.77003C66.2335 2.23947 66.0484 2.68968 65.7189 3.02163C65.3895 3.35357 64.9426 3.54006 64.4767 3.54006Z" fill="black"/>
<path d="M40.6626 52.7075C40.1966 52.7075 39.7498 52.521 39.4203 52.1891C39.0909 51.8571 38.9058 51.4069 38.9058 50.9375V23.506C38.9008 22.4019 39.2512 21.3261 39.9044 20.4396C40.5576 19.5532 41.4783 18.9039 42.5287 18.5892L59.1908 13.5387C59.9509 13.3081 60.754 13.2598 61.536 13.3976C62.318 13.5355 63.0571 13.8557 63.6944 14.3326C64.3317 14.8096 64.8494 15.4301 65.2062 16.1446C65.563 16.8591 65.749 17.6478 65.7494 18.4476V43.0707C65.7494 43.5401 65.5643 43.9903 65.2349 44.3223C64.9054 44.6542 64.4586 44.8407 63.9926 44.8407C63.5267 44.8407 63.0799 44.6542 62.7504 44.3223C62.4209 43.9903 62.2358 43.5401 62.2358 43.0707V18.4476C62.2398 18.1985 62.185 17.9519 62.0759 17.7283C61.9668 17.5046 61.8066 17.3103 61.6083 17.1613C61.4101 17.0123 61.1796 16.9128 60.9357 16.8711C60.6919 16.8294 60.4417 16.8467 60.2058 16.9215L43.5437 21.9798C43.2167 22.0759 42.9299 22.277 42.7269 22.5525C42.524 22.828 42.4159 23.1629 42.4193 23.506V50.9375C42.4193 51.4069 42.2343 51.8571 41.9048 52.1891C41.5753 52.521 41.1285 52.7075 40.6626 52.7075Z" fill="black"/>
<path d="M40.6626 32.2538C40.2383 32.2577 39.827 32.1067 39.5046 31.8288C39.1822 31.5509 38.9706 31.1649 38.9087 30.742C38.8468 30.3191 38.9389 29.8879 39.168 29.5281C39.3971 29.1683 39.7477 28.9042 40.155 28.7846L63.4851 21.7045C63.9314 21.5689 64.4128 21.6174 64.8236 21.8394C65.2343 22.0615 65.5406 22.4388 65.6752 22.8884C65.8098 23.338 65.7617 23.8231 65.5413 24.2369C65.3209 24.6508 64.9464 24.9594 64.5002 25.0951L41.1701 32.1752C41.0059 32.2276 40.8347 32.2541 40.6626 32.2538Z" fill="black"/>
<path d="M33.245 59.7876C31.4305 59.7876 29.6568 59.2455 28.148 58.2298C26.6393 57.2141 25.4634 55.7705 24.7691 54.0814C24.0747 52.3924 23.893 50.5339 24.247 48.7408C24.601 46.9477 25.4748 45.3007 26.7578 44.008C28.0409 42.7153 29.6756 41.8349 31.4552 41.4783C33.2348 41.1216 35.0795 41.3046 36.7559 42.0043C38.4323 42.7039 39.8651 43.8886 40.8732 45.4087C41.8813 46.9288 42.4193 48.7159 42.4193 50.5441C42.4173 52.995 41.45 55.3449 39.73 57.0779C38.0099 58.811 35.6776 59.7855 33.245 59.7876ZM33.245 44.8407C32.1254 44.8407 31.031 45.1752 30.1001 45.8019C29.1692 46.4286 28.4436 47.3194 28.0152 48.3615C27.5867 49.4037 27.4746 50.5504 27.693 51.6568C27.9115 52.7632 28.4506 53.7794 29.2423 54.5771C30.0339 55.3747 31.0426 55.9179 32.1407 56.138C33.2387 56.358 34.3769 56.2451 35.4113 55.8134C36.4457 55.3817 37.3298 54.6507 37.9518 53.7128C38.5738 52.7749 38.9058 51.6722 38.9058 50.5441C38.9037 49.0321 38.3066 47.5826 37.2455 46.5135C36.1843 45.4443 34.7457 44.8428 33.245 44.8407Z" fill="black"/>
<path d="M56.6688 53.4942C54.8543 53.4942 53.0805 52.952 51.5718 51.9364C50.0631 50.9207 48.8872 49.477 48.1928 47.788C47.4985 46.099 47.3168 44.2404 47.6708 42.4474C48.0248 40.6543 48.8985 39.0073 50.1816 37.7146C51.4646 36.4218 53.0993 35.5415 54.879 35.1848C56.6586 34.8282 58.5033 35.0112 60.1796 35.7108C61.856 36.4104 63.2889 37.5952 64.2969 39.1153C65.305 40.6354 65.8431 42.4225 65.8431 44.2507C65.841 46.7016 64.8738 49.0515 63.1537 50.7845C61.4337 52.5176 59.1013 53.4921 56.6688 53.4942ZM56.6688 38.5473C55.5492 38.5473 54.4547 38.8818 53.5238 39.5085C52.5929 40.1352 51.8674 41.0259 51.4389 42.0681C51.0105 43.1102 50.8984 44.257 51.1168 45.3634C51.3352 46.4697 51.8744 47.486 52.666 48.2836C53.4577 49.0813 54.4664 49.6245 55.5644 49.8445C56.6625 50.0646 57.8007 49.9516 58.8351 49.52C59.8694 49.0883 60.7535 48.3573 61.3755 47.4193C61.9975 46.4814 62.3295 45.3787 62.3295 44.2507C62.3275 42.7387 61.7304 41.2892 60.6693 40.2201C59.6081 39.1509 58.1695 38.5494 56.6688 38.5473Z" fill="black"/>
</svg>
