<svg width="61" height="60" viewBox="0 0 61 60" fill="none" xmlns="http://www.w3.org/2000/svg">
<path d="M25.2504 59.8505C15.7794 59.8505 6.51136 54.6191 2.53713 46.9254C-1.16383 39.7824 0.030791 31.475 5.91016 23.5296C6.12464 23.2351 6.42502 23.0155 6.76934 22.9012C7.11366 22.787 7.48477 22.7839 7.83092 22.8924C8.17839 23.0006 8.48413 23.2145 8.70636 23.5045C8.92859 23.7946 9.05641 24.1468 9.07236 24.5129C9.20509 27.7776 10.1498 32.9225 11.8051 34.1419C11.9311 34.2423 12.0807 34.3082 12.2395 34.333C12.3982 34.3578 12.5606 34.3408 12.7109 34.2835C14.1397 33.8901 13.9758 31.5301 13.3043 26.6055C12.0706 17.6688 10.1811 4.16153 29.5916 0.0393371C29.9242 -0.0329978 30.2704 -0.00603319 30.588 0.116928C30.9056 0.239889 31.1807 0.453507 31.3796 0.731615C31.5793 1.0105 31.6945 1.34175 31.7111 1.68524C31.7277 2.02873 31.6451 2.3697 31.4733 2.66685C30.6648 4.23981 30.2429 5.9853 30.2429 7.75666C30.2429 9.52802 30.6648 11.2735 31.4733 12.8465C31.6907 13.2638 31.7347 13.751 31.5956 14.2009C31.4565 14.6509 31.1457 15.0268 30.7316 15.2458C30.3174 15.4649 29.8338 15.5092 29.3872 15.3691C28.9406 15.2289 28.5676 14.9158 28.3501 14.4985C26.7044 11.3812 26.2649 7.75963 27.1165 4.3346C14.3115 8.37813 15.5998 17.7711 16.7476 26.1177C17.4503 31.1997 18.1686 36.4468 13.6244 37.6977C12.9643 37.8935 12.2681 37.9323 11.5906 37.8108C10.9131 37.6893 10.2729 37.4109 9.72043 36.9975C7.75283 35.55 6.71438 32.4741 6.16002 29.7207C2.6933 36.4783 3.81766 41.8041 5.64471 45.2891C9.08801 51.9365 17.6221 56.5701 25.9453 56.3026C30.1382 56.1689 37.7353 54.6427 41.5612 45.9342C41.7496 45.5044 42.0998 45.1676 42.5347 44.998C42.9696 44.8283 43.4535 44.8396 43.8801 45.0295C44.3067 45.2194 44.6409 45.5722 44.8093 46.0104C44.9777 46.4485 44.9665 46.9361 44.778 47.3659C41.405 55.0203 34.5809 59.5673 26.039 59.8427L25.2504 59.8505Z" fill="black"/>
<path d="M60.9013 32.7809V8.2208C60.901 7.42096 60.715 6.63229 60.3582 5.9178C60.0013 5.2033 59.4836 4.58279 58.8463 4.10583C58.2091 3.62886 57.4699 3.30867 56.6879 3.17082C55.906 3.03297 55.1028 3.08129 54.3427 3.31192L37.6806 8.3624C36.6303 8.6771 35.7095 9.32634 35.0563 10.2128C34.4031 11.0992 34.0528 12.1751 34.0577 13.2791V33.0405C32.4522 31.7704 30.4719 31.0766 28.4306 31.069C26.3893 31.0614 24.404 31.7405 22.7892 32.9987C21.1745 34.2568 20.0227 36.0221 19.5166 38.0145C19.0104 40.0069 19.1788 42.1126 19.9951 43.9976C20.8113 45.8827 22.2288 47.4393 24.0226 48.4208C25.8165 49.4022 27.8842 49.7523 29.8979 49.4155C31.9116 49.0787 33.7561 48.0743 35.1391 46.5616C36.522 45.0489 37.3642 43.1143 37.5322 41.0646C37.5441 40.9417 37.5441 40.8179 37.5322 40.6949V21.5943L57.3487 15.5762V26.692C55.6394 25.3557 53.5219 24.6601 51.3593 24.7243C49.1966 24.7885 47.1235 25.6086 45.4952 27.044C43.8669 28.4794 42.7848 30.4407 42.4343 32.5917C42.0839 34.7428 42.487 36.9498 43.5744 38.8343C44.6619 40.7188 46.366 42.1636 48.3947 42.9209C50.4235 43.6783 52.6506 43.7012 54.6943 42.9856C56.7379 42.27 58.4709 40.8605 59.5963 38.9987C60.7216 37.1369 61.1692 34.9387 60.8623 32.7809H60.9013ZM28.3969 46.0207C27.2774 46.0207 26.183 45.6862 25.2521 45.0595C24.3211 44.4328 23.5956 43.5421 23.1671 42.4999C22.7387 41.4577 22.6266 40.311 22.845 39.2046C23.0634 38.0983 23.6025 37.082 24.3942 36.2844C25.1859 35.4867 26.1945 34.9435 27.2926 34.7235C28.3907 34.5034 29.5289 34.6163 30.5632 35.048C31.5976 35.4797 32.4817 36.2107 33.1037 37.1486C33.7257 38.0866 34.0577 39.1893 34.0577 40.3173C34.0556 41.8293 33.4586 43.2788 32.3975 44.3479C31.3363 45.4171 29.8976 46.0186 28.3969 46.0207ZM37.5713 17.8969V13.2791C37.5679 12.936 37.6759 12.6012 37.8789 12.3257C38.0819 12.0502 38.3687 11.849 38.6956 11.753L55.3577 6.69464C55.5937 6.61985 55.8438 6.60259 56.0877 6.64428C56.3315 6.68598 56.5621 6.78543 56.7603 6.93445C56.9585 7.08348 57.1187 7.27781 57.2278 7.50145C57.3369 7.72509 57.3917 7.97164 57.3878 8.2208V11.8867L37.5713 17.8969ZM51.8207 39.7273C50.7011 39.7273 49.6067 39.3928 48.6758 38.7661C47.7449 38.1394 47.0193 37.2486 46.5909 36.2065C46.1624 35.1643 46.0503 34.0175 46.2688 32.9112C46.4872 31.8048 47.0263 30.7886 47.818 29.9909C48.6096 29.1933 49.6183 28.6501 50.7164 28.43C51.8145 28.21 52.9526 28.3229 53.987 28.7546C55.0214 29.1863 55.9055 29.9173 56.5275 30.8552C57.1495 31.7931 57.4815 32.8958 57.4815 34.0239C57.4794 35.5359 56.8824 36.9854 55.8212 38.0545C54.7601 39.1236 53.3214 39.7252 51.8207 39.7273Z" fill="black"/>
</svg>
