<svg width="75" height="60" viewBox="0 0 75 60" fill="none" xmlns="http://www.w3.org/2000/svg">
<path d="M29.3742 35.5579H1.8903C1.42437 35.5579 0.977538 35.3714 0.648078 35.0395C0.318617 34.7075 0.133514 34.2573 0.133514 33.7879C0.133514 33.3184 0.318617 32.8682 0.648078 32.5363C0.977538 32.2043 1.42437 32.0178 1.8903 32.0178H29.3742C29.8401 32.0178 30.287 32.2043 30.6164 32.5363C30.9459 32.8682 31.131 33.3184 31.131 33.7879C31.131 34.2573 30.9459 34.7075 30.6164 35.0395C30.287 35.3714 29.8401 35.5579 29.3742 35.5579Z" fill="black"/>
<path d="M33.2782 24.8827H1.8903C1.42437 24.8827 0.977538 24.6962 0.648078 24.3642C0.318617 24.0323 0.133514 23.5821 0.133514 23.1126C0.133514 22.6432 0.318617 22.193 0.648078 21.861C0.977538 21.5291 1.42437 21.3426 1.8903 21.3426H33.2782C33.7441 21.3426 34.1909 21.5291 34.5204 21.861C34.8498 22.193 35.0349 22.6432 35.0349 23.1126C35.0349 23.5821 34.8498 24.0323 34.5204 24.3642C34.1909 24.6962 33.7441 24.8827 33.2782 24.8827Z" fill="black"/>
<path d="M37.9629 14.2153H1.8903C1.42437 14.2153 0.977538 14.0288 0.648078 13.6969C0.318617 13.3649 0.133514 12.9147 0.133514 12.4453C0.133514 11.9758 0.318617 11.5256 0.648078 11.1937C0.977538 10.8617 1.42437 10.6752 1.8903 10.6752H37.9629C38.4288 10.6752 38.8757 10.8617 39.2051 11.1937C39.5346 11.5256 39.7197 11.9758 39.7197 12.4453C39.7197 12.9147 39.5346 13.3649 39.2051 13.6969C38.8757 14.0288 38.4288 14.2153 37.9629 14.2153Z" fill="black"/>
<path d="M63.729 3.54006H1.8903C1.42437 3.54006 0.977538 3.35357 0.648078 3.02163C0.318617 2.68968 0.133514 2.23947 0.133514 1.77003C0.133514 1.30059 0.318617 0.850374 0.648078 0.518429C0.977538 0.186485 1.42437 0 1.8903 0L63.729 0C64.195 0 64.6418 0.186485 64.9713 0.518429C65.3007 0.850374 65.4858 1.30059 65.4858 1.77003C65.4858 2.23947 65.3007 2.68968 64.9713 3.02163C64.6418 3.35357 64.195 3.54006 63.729 3.54006Z" fill="black"/>
<path d="M56.9674 60C56.3271 60 55.6713 60 55.0232 59.9056C50.2144 59.4267 45.6903 57.3864 42.1323 54.092C36.6121 48.8842 33.4421 39.7116 41.1017 29.6027C41.3236 29.3243 41.624 29.1199 41.9634 29.0167C42.3027 28.9134 42.6652 28.9159 43.003 29.024C43.3409 29.1321 43.6384 29.3407 43.8565 29.6223C44.0745 29.9038 44.2029 30.2453 44.2248 30.6018C44.3341 33.1428 45.0759 37.32 46.333 38.2483C46.3985 38.2997 46.4764 38.3326 46.5587 38.3437C46.6411 38.3547 46.7248 38.3436 46.8015 38.3113C47.7618 38.0517 47.5276 35.7939 47.0591 32.3797C46.0987 25.394 44.4903 13.7039 60.6527 10.2662C60.9853 10.1948 61.3312 10.2223 61.6486 10.3452C61.966 10.4681 62.2411 10.6811 62.4407 10.9584C62.6361 11.2377 62.7487 11.5671 62.7653 11.9084C62.7819 12.2497 62.7018 12.5887 62.5344 12.8858C62.3783 13.169 58.9974 19.3995 65.923 24.7647C71.3105 28.9498 74.785 35.4635 74.9724 41.7648C75.0584 44.4126 74.54 47.045 73.4571 49.4591C72.3741 51.8732 70.7555 54.0045 68.7261 55.689C65.4556 58.5161 61.2763 60.0483 56.9674 60ZM41.414 35.8332C38.8608 41.5209 39.907 47.1693 44.5371 51.5039C50.0027 56.6802 59.9656 58.7335 66.4696 53.0222C68.0948 51.6734 69.3917 49.9673 70.2606 48.035C71.1296 46.1026 71.5475 43.9953 71.4823 41.8749C71.3261 36.6042 68.3591 31.121 63.7993 27.5731C58.3337 23.3486 57.592 18.2667 58.2791 14.585C48.6363 17.9284 49.6904 25.3153 50.5649 31.892C51.1504 36.1872 51.7673 40.6241 47.754 41.7255C47.1667 41.9003 46.5471 41.9351 45.9441 41.8273C45.3411 41.7194 44.7712 41.4718 44.2795 41.104C42.7804 40.0184 41.9137 37.8943 41.414 35.8332Z" fill="black"/>
</svg>
