<svg width="79" height="60" viewBox="0 0 79 60" fill="none" xmlns="http://www.w3.org/2000/svg">
<g clip-path="url(#clip0_23_2)">
<path d="M37.3056 60C36.8294 60 36.3727 59.8116 36.036 59.4763C35.6993 59.1409 35.5101 58.6861 35.5101 58.2119V25.6291C35.5101 25.1549 35.6993 24.7001 36.036 24.3648C36.3727 24.0294 36.8294 23.8411 37.3056 23.8411C37.7817 23.8411 38.2384 24.0294 38.5751 24.3648C38.9118 24.7001 39.101 25.1549 39.101 25.6291V58.2119C39.101 58.6861 38.9118 59.1409 38.5751 59.4763C38.2384 59.8116 37.7817 60 37.3056 60Z" fill="black"/>
<path d="M44.4874 32.5828C44.2515 32.5834 44.0179 32.5374 43.8001 32.4474C43.5823 32.3573 43.3846 32.2251 43.2186 32.0583L37.3375 26.2252L31.4564 32.0821C31.1198 32.4183 30.663 32.6076 30.1864 32.6083C29.7098 32.6091 29.2523 32.4212 28.9148 32.0861C28.5772 31.751 28.3872 31.296 28.3864 30.8214C28.3857 30.3467 28.5743 29.8911 28.9108 29.555L36.0926 22.4027C36.2581 22.2351 36.4557 22.1024 36.6736 22.0123C36.8916 21.9222 37.1254 21.8766 37.3614 21.8781C37.5973 21.877 37.831 21.9229 38.0489 22.0129C38.2668 22.103 38.4644 22.2355 38.6302 22.4027L45.812 29.555C46.0581 29.8096 46.2229 30.1311 46.2856 30.4789C46.3483 30.8267 46.3062 31.1852 46.1644 31.5092C46.0227 31.8331 45.7878 32.108 45.4893 32.2991C45.1908 32.4902 44.8421 32.5889 44.4874 32.5828Z" fill="black"/>
<path d="M13.7652 27.8146C13.289 27.8146 12.8323 27.6262 12.4956 27.2909C12.1589 26.9555 11.9697 26.5007 11.9697 26.0265C11.9635 19.6039 14.3421 13.4058 18.648 8.62445C22.9539 3.84309 28.8829 0.816136 35.2946 0.125822C41.7064 -0.564492 48.148 1.13059 53.3804 4.88501C58.6129 8.63944 62.2666 14.188 63.6389 20.4636C63.6913 20.6926 63.6979 20.9298 63.6583 21.1614C63.6186 21.393 63.5336 21.6145 63.408 21.8134C63.2824 22.0123 63.1187 22.1846 62.9263 22.3205C62.7338 22.4563 62.5163 22.5531 62.2863 22.6053C62.0563 22.6575 61.8182 22.664 61.5857 22.6246C61.3531 22.5851 61.1306 22.5004 60.9309 22.3754C60.7312 22.2503 60.5582 22.0872 60.4218 21.8956C60.2854 21.7039 60.1882 21.4873 60.1358 21.2583C58.958 15.8419 55.8102 11.0508 51.2982 7.807C46.7862 4.56324 41.229 3.0961 35.696 3.68797C30.1631 4.27983 25.0454 6.88886 21.3281 11.0129C17.6108 15.137 15.5565 20.4846 15.5606 26.0265C15.5606 26.5007 15.3715 26.9555 15.0347 27.2909C14.698 27.6262 14.2413 27.8146 13.7652 27.8146Z" fill="black"/>
<path d="M62.4419 52.053H48.8763C48.4001 52.053 47.9434 51.8646 47.6067 51.5293C47.27 51.1939 47.0808 50.7391 47.0808 50.2649C47.0808 49.7907 47.27 49.3359 47.6067 49.0005C47.9434 48.6652 48.4001 48.4768 48.8763 48.4768H62.4419C65.881 48.4768 69.1793 47.1163 71.6111 44.6944C74.0429 42.2726 75.4091 38.9879 75.4091 35.5629C75.4091 32.1379 74.0429 28.8532 71.6111 26.4314C69.1793 24.0096 65.881 22.649 62.4419 22.649C61.9657 22.649 61.5091 22.4606 61.1723 22.1253C60.8356 21.79 60.6465 21.3352 60.6465 20.8609C60.6465 20.3867 60.8356 19.9319 61.1723 19.5966C61.5091 19.2612 61.9657 19.0728 62.4419 19.0728C66.8334 19.0728 71.045 20.8102 74.1502 23.9027C77.2555 26.9952 79 31.1895 79 35.5629C79 39.9363 77.2555 44.1307 74.1502 47.2232C71.045 50.3156 66.8334 52.053 62.4419 52.053Z" fill="black"/>
<path d="M24.9369 52.053H13.7652C10.1144 52.053 6.61319 50.6087 4.03172 48.0378C1.45025 45.467 0 41.9801 0 38.3444C0 34.7086 1.45025 31.2218 4.03172 28.6509C6.61319 26.0801 10.1144 24.6358 13.7652 24.6358C14.2413 24.6358 14.698 24.8241 15.0347 25.1595C15.3714 25.4948 15.5606 25.9496 15.5606 26.4238C15.5606 26.8981 15.3714 27.3529 15.0347 27.6882C14.698 28.0235 14.2413 28.2119 13.7652 28.2119C11.0668 28.2119 8.47892 29.2794 6.57088 31.1796C4.66284 33.0799 3.59091 35.6571 3.59091 38.3444C3.59091 41.0317 4.66284 43.6089 6.57088 45.5091C8.47892 47.4093 11.0668 48.4768 13.7652 48.4768H24.9369C25.4131 48.4768 25.8697 48.6652 26.2064 49.0005C26.5432 49.3359 26.7323 49.7907 26.7323 50.2649C26.7323 50.7391 26.5432 51.1939 26.2064 51.5293C25.8697 51.8646 25.4131 52.053 24.9369 52.053Z" fill="black"/>
</g>
<defs>
<clipPath id="clip0_23_2">
<rect width="79" height="60" fill="white"/>
</clipPath>
</defs>
</svg>
